<?xml version="1.0" standalone="no"?>
<!DOCTYPE svg PUBLIC "-//W3C//DTD SVG 20010904//EN"
 "http://www.w3.org/TR/2001/REC-SVG-20010904/DTD/svg10.dtd">
<svg version="1.0" xmlns="http://www.w3.org/2000/svg"
 width="1509.000000pt" height="716.000000pt" viewBox="0 0 1509.000000 716.000000"
 preserveAspectRatio="xMidYMid meet">

<g transform="translate(0.000000,716.000000) scale(0.100000,-0.100000)"
fill="#000000" stroke="none">
<path d="M0 4384 l0 -2776 5958 6 c3276 3 6671 5 7545 6 l1587 0 0 2770 0
2770 -7545 0 -7545 0 0 -2776z m5010 1 l0 -2685 -2460 0 -2460 0 0 2685 0
2685 2460 0 2460 0 0 -2685z m9977 -1348 c-1 -727 -2 -132 -2 1323 0 1455 1
2050 2 1322 2 -727 2 -1917 0 -2645z m-2770 3197 c-3 -3 -12 -4 -19 -1 -8 3
-5 6 6 6 11 1 17 -2 13 -5z m947 -3 c4 -5 -3 -7 -14 -4 -23 6 -26 13 -6 13 8
0 17 -4 20 -9z m-1189 -81 c-3 -5 -14 -10 -23 -9 -14 0 -13 2 3 9 27 11 27 11
20 0z m-108 -56 c-3 -3 -12 -4 -19 -1 -8 3 -5 6 6 6 11 1 17 -2 13 -5z m1628
-4 c3 -6 -1 -7 -9 -4 -18 7 -21 14 -7 14 6 0 13 -4 16 -10z m-1662 -67 c-7 -2
-19 -2 -25 0 -7 3 -2 5 12 5 14 0 19 -2 13 -5z m1828 -50 l24 -26 -27 19 c-15
10 -28 22 -28 27 0 12 5 8 31 -20z m-2021 -26 c0 -2 -10 -12 -22 -23 l-23 -19
19 23 c18 21 26 27 26 19z m2244 -213 c3 -8 2 -12 -4 -9 -6 3 -10 10 -10 16 0
14 7 11 14 -7z m13 -30 c-3 -3 -12 -4 -19 -1 -8 3 -5 6 6 6 11 1 17 -2 13 -5z
m-1424 -31 c-7 -2 -21 -2 -30 0 -10 3 -4 5 12 5 17 0 24 -2 18 -5z m360 0 c-7
-2 -19 -2 -25 0 -7 3 -2 5 12 5 14 0 19 -2 13 -5z m-453 -57 c0 -2 -7 -7 -16
-10 -8 -3 -12 -2 -9 4 6 10 25 14 25 6z m550 -6 c18 -12 2 -12 -25 0 -13 6
-15 9 -5 9 8 0 22 -4 30 -9z m1038 -25 c-3 -3 -9 2 -12 12 -6 14 -5 15 5 6 7
-7 10 -15 7 -18z m-963 -13 c-3 -3 -11 0 -18 7 -9 10 -8 11 6 5 10 -3 15 -9
12 -12z m-1755 -113 c-7 -11 -14 -18 -17 -15 -3 3 0 12 7 21 18 21 23 19 10
-6z m1925 -9 c3 -5 1 -10 -4 -10 -6 0 -11 5 -11 10 0 6 2 10 4 10 3 0 8 -4 11
-10z m-1117 -39 c-13 -17 -27 -30 -32 -30 -6 -1 3 13 19 29 37 38 43 39 13 1z
m-828 9 c0 -5 -5 -10 -11 -10 -5 0 -7 5 -4 10 3 6 8 10 11 10 2 0 4 -4 4 -10z
m2010 -51 c15 -28 5 -23 -15 7 -9 15 -12 23 -6 20 6 -4 16 -16 21 -27z m117
-65 c-3 -3 -12 -4 -19 -1 -8 3 -5 6 6 6 11 1 17 -2 13 -5z m-28 -97 c1 -5 -3
-5 -9 -2 -5 3 -10 16 -9 28 0 21 1 21 9 2 5 -11 9 -24 9 -28z m-2188 6 c-12
-20 -14 -14 -5 12 4 9 9 14 11 11 3 -2 0 -13 -6 -23z m2882 0 c-7 -2 -21 -2
-30 0 -10 3 -4 5 12 5 17 0 24 -2 18 -5z m-2116 -35 c-3 -8 -6 -5 -6 6 -1 11
2 17 5 13 3 -3 4 -12 1 -19z m1980 6 c-3 -3 -12 -4 -19 -1 -8 3 -5 6 6 6 11 1
17 -2 13 -5z m-346 -92 c-7 -2 -18 1 -23 6 -8 8 -4 9 13 5 13 -4 18 -8 10 -11z
m-1928 -269 c-89 -2 -237 -2 -330 0 -92 1 -19 3 162 3 182 0 257 -2 168 -3z
m-530 -340 c-7 -2 -21 -2 -30 0 -10 3 -4 5 12 5 17 0 24 -2 18 -5z m704 -65
c-3 -7 -5 -2 -5 12 0 14 2 19 5 13 2 -7 2 -19 0 -25z m-717 -308 c0 -5 -8 -10
-17 -10 -15 0 -16 2 -3 10 19 12 20 12 20 0z m747 -52 c-3 -8 -6 -5 -6 6 -1
11 2 17 5 13 3 -3 4 -12 1 -19z m-754 -38 c3 -11 1 -18 -4 -14 -5 3 -9 12 -9
20 0 20 7 17 13 -6z m764 -2 c-3 -8 -6 -5 -6 6 -1 11 2 17 5 13 3 -3 4 -12 1
-19z m-740 -130 c-3 -8 -6 -5 -6 6 -1 11 2 17 5 13 3 -3 4 -12 1 -19z m2730
16 c-3 -3 -12 -4 -19 -1 -8 3 -5 6 6 6 11 1 17 -2 13 -5z m80 -30 c-3 -3 -12
-4 -19 -1 -8 3 -5 6 6 6 11 1 17 -2 13 -5z m-2000 -26 c-3 -8 -6 -5 -6 6 -1
11 2 17 5 13 3 -3 4 -12 1 -19z m2080 6 c-3 -3 -12 -4 -19 -1 -8 3 -5 6 6 6
11 1 17 -2 13 -5z m-2840 -146 c-3 -8 -6 -5 -6 6 -1 11 2 17 5 13 3 -3 4 -12
1 -19z m2093 -112 c0 -3 -4 -8 -10 -11 -5 -3 -10 -1 -10 4 0 6 5 11 10 11 6 0
10 -2 10 -4z m-50 -70 c0 -2 -7 -9 -15 -16 -13 -11 -14 -10 -9 4 5 14 24 23
24 12z m-1100 -16 c0 -5 -5 -10 -11 -10 -5 0 -7 5 -4 10 3 6 8 10 11 10 2 0 4
-4 4 -10z m1037 -76 c-3 -3 -12 -4 -19 -1 -8 3 -5 6 6 6 11 1 17 -2 13 -5z
m-882 -54 c3 -6 -1 -7 -9 -4 -18 7 -21 14 -7 14 6 0 13 -4 16 -10z m70 -38
c-3 -3 -11 0 -18 7 -9 10 -8 11 6 5 10 -3 15 -9 12 -12z m632 2 c-3 -3 -12 -4
-19 -1 -8 3 -5 6 6 6 11 1 17 -2 13 -5z m-1517 -149 c7 -9 8 -15 2 -15 -5 0
-12 7 -16 15 -3 8 -4 15 -2 15 2 0 9 -7 16 -15z m2290 -159 c0 -3 -4 -8 -10
-11 -5 -3 -10 -1 -10 4 0 6 5 11 10 11 6 0 10 -2 10 -4z m-1965 -136 c3 -5 1
-10 -4 -10 -6 0 -11 5 -11 10 0 6 2 10 4 10 3 0 8 -4 11 -10z m55 -30 c14 -11
21 -20 17 -20 -5 0 -20 9 -34 20 -14 11 -22 20 -17 20 5 0 20 -9 34 -20z m387
-166 c-3 -3 -12 -4 -19 -1 -8 3 -5 6 6 6 11 1 17 -2 13 -5z m900 -10 c-3 -3
-12 -4 -19 -1 -8 3 -5 6 6 6 11 1 17 -2 13 -5z m-674 -41 c-7 -2 -19 -2 -25 0
-7 3 -2 5 12 5 14 0 19 -2 13 -5z m340 -10 c-7 -2 -19 -2 -25 0 -7 3 -2 5 12
5 14 0 19 -2 13 -5z m40 -20 c-7 -2 -19 -2 -25 0 -7 3 -2 5 12 5 14 0 19 -2
13 -5z"/>
<path d="M2215 6299 c-99 -7 -281 -40 -327 -58 -15 -6 184 -10 547 -10 377 1
560 4 540 10 -172 55 -490 79 -760 58z"/>
<path d="M1625 6134 c-33 -20 -64 -40 -69 -45 -6 -5 347 -9 880 -9 880 0 889
1 864 20 -14 10 -48 31 -77 45 l-52 25 -743 0 -743 -1 -60 -35z"/>
<path d="M1407 5970 c-28 -27 -48 -52 -45 -55 2 -3 488 -4 1079 -3 l1074 3
-52 53 -52 52 -977 0 -976 0 -51 -50z"/>
<path d="M1298 5833 c-15 -17 -58 -97 -58 -107 0 -3 540 -6 1200 -6 l1201 0
-17 32 c-9 18 -27 48 -41 66 l-24 32 -1123 0 c-1057 0 -1124 -1 -1138 -17z"/>
<path d="M1188 5608 l-15 -53 350 -3 351 -2 25 24 c14 13 51 38 81 55 l55 31
-416 0 -416 0 -15 -52z"/>
<path d="M2821 5631 c24 -17 55 -41 68 -55 l24 -26 400 0 c337 0 398 2 394 14
-3 8 -11 32 -18 55 l-12 41 -450 0 -450 0 44 -29z"/>
<path d="M1157 5483 c-4 -3 -7 -33 -7 -65 l0 -58 333 0 333 0 10 65 9 65 -336
0 c-184 0 -339 -3 -342 -7z"/>
<path d="M2980 5453 c10 -21 24 -50 29 -65 l11 -28 366 0 366 0 -6 38 c-4 20
-9 49 -12 65 l-6 27 -384 0 -384 0 20 -37z"/>
<path d="M1150 5250 l0 -50 365 0 c201 0 365 3 365 6 0 3 -9 17 -20 31 -11 14
-20 34 -20 44 0 18 -15 19 -345 19 l-345 0 0 -50z"/>
<path d="M3046 5263 c4 -21 8 -40 10 -42 2 -2 135 2 296 8 161 6 319 11 351
11 57 0 57 0 57 30 l0 30 -360 0 -361 0 7 -37z"/>
<path d="M1164 5123 c3 -10 8 -30 12 -45 l6 -28 482 0 481 1 -94 44 -94 45
-399 0 c-376 0 -399 -1 -394 -17z"/>
<path d="M1227 4935 l27 -55 750 0 c412 0 747 2 745 4 -2 3 -94 27 -204 55
l-200 51 -572 0 -573 0 27 -55z"/>
<path d="M1335 4760 l46 -60 952 0 c951 0 952 0 909 20 -23 11 -92 38 -152 60
l-110 40 -846 0 -845 0 46 -60z"/>
<path d="M1460 4631 c0 -9 90 -80 127 -99 16 -9 274 -12 994 -12 l972 0 -19
22 c-10 11 -46 38 -78 60 l-59 38 -969 0 c-550 0 -968 -4 -968 -9z"/>
<path d="M1754 4443 c16 -8 82 -36 145 -62 l116 -46 848 -3 c466 -1 847 1 847
5 0 5 -20 34 -45 66 l-45 57 -948 0 c-870 -1 -945 -2 -918 -17z"/>
<path d="M2291 4266 c2 -2 86 -25 186 -50 l181 -46 567 0 566 0 -7 23 c-3 12
-13 34 -21 50 l-14 27 -731 0 c-402 0 -729 -2 -727 -4z"/>
<path d="M2905 4087 c28 -12 67 -32 86 -44 36 -23 39 -23 438 -23 334 0 401 2
401 14 0 7 -3 28 -6 45 l-6 31 -482 0 -481 -1 50 -22z"/>
<path d="M3118 3905 l27 -55 352 0 c193 0 354 3 356 8 2 4 2 28 -1 55 l-4 47
-378 0 -378 0 26 -55z"/>
<path d="M1350 3909 c-157 -15 -295 -28 -307 -29 -20 0 -23 -5 -22 -37 1 -24
3 -29 6 -15 l4 22 346 0 345 0 -6 23 c-3 12 -6 32 -6 45 0 28 8 28 -360 -9z"/>
<path d="M1035 3744 c3 -26 9 -53 12 -60 4 -12 70 -14 369 -14 200 0 364 1
364 3 0 1 -9 27 -19 57 l-19 55 -357 3 -357 2 7 -46z"/>
<path d="M3150 3730 l0 -60 355 0 355 0 0 60 0 60 -355 0 -355 0 0 -60z"/>
<path d="M1070 3597 c0 -7 7 -34 16 -60 l16 -47 395 0 395 0 -16 23 c-8 12
-26 39 -38 60 l-22 37 -373 0 c-303 0 -373 -2 -373 -13z"/>
<path d="M3113 3583 c-6 -16 -21 -43 -33 -60 l-22 -33 385 0 385 0 7 46 c3 26
9 53 12 60 4 12 -54 14 -359 14 l-364 0 -11 -27z"/>
<path d="M1130 3418 c0 -7 13 -35 28 -63 l27 -50 510 -2 c360 -1 503 1 485 9
-78 32 -167 76 -193 96 -31 22 -31 22 -444 22 -324 0 -413 -3 -413 -12z"/>
<path d="M2959 3402 c-31 -24 -93 -55 -179 -90 -18 -8 121 -11 476 -11 l501
-1 22 56 c11 31 21 60 21 65 0 5 -167 9 -402 9 l-403 -1 -36 -27z"/>
<path d="M1230 3234 c0 -4 12 -26 28 -50 l27 -43 1185 0 1185 0 16 22 c9 12
24 34 33 50 l18 27 -1246 0 c-685 0 -1246 -3 -1246 -6z"/>
<path d="M1359 3061 c6 -10 24 -31 42 -45 l31 -26 1042 0 1042 0 44 45 44 45
-1127 0 c-1103 0 -1127 0 -1118 -19z"/>
<path d="M1510 2926 c0 -4 104 -68 147 -90 29 -14 112 -16 813 -16 l781 0 49
25 c27 14 71 38 97 55 l47 30 -967 0 c-532 0 -967 -2 -967 -4z"/>
<path d="M1890 2749 c45 -18 202 -47 324 -59 243 -25 653 2 816 54 40 12 -21
14 -560 14 -415 1 -597 -2 -580 -9z"/>
<path d="M555 1276 c-5 -2 -35 -12 -65 -21 -120 -37 -199 -147 -208 -291 -9
-143 45 -261 151 -328 29 -18 114 -55 189 -81 148 -52 181 -74 199 -133 23
-77 -31 -177 -109 -200 -130 -39 -234 22 -272 161 l-17 61 -41 -2 c-22 -2 -62
-7 -89 -10 l-48 -7 3 -40 c6 -72 53 -195 95 -247 78 -99 168 -133 329 -126
112 5 184 34 243 100 107 118 131 321 56 473 -50 102 -105 140 -298 206 -178
61 -201 78 -210 149 -11 81 46 131 150 134 73 1 116 -15 144 -52 20 -27 25
-41 37 -94 6 -26 10 -28 55 -28 26 0 69 3 95 6 l46 7 -6 51 c-18 143 -98 250
-218 292 -39 14 -190 28 -211 20z"/>
<path d="M4320 1266 c-158 -43 -274 -177 -325 -376 -25 -100 -31 -324 -11
-439 29 -164 95 -288 194 -366 73 -57 147 -79 250 -73 132 8 224 66 295 186
26 45 67 159 67 188 0 13 -35 33 -124 68 -21 9 -42 16 -46 16 -4 0 -15 -28
-24 -63 -39 -142 -126 -208 -245 -184 -58 12 -121 75 -149 150 -33 87 -47 254
-33 379 14 131 35 189 89 249 49 55 99 74 170 66 75 -8 153 -84 168 -164 3
-18 12 -33 20 -33 27 0 174 51 174 61 0 18 -41 131 -57 158 -37 59 -85 110
-125 134 -91 53 -196 69 -288 43z"/>
<path d="M8960 1264 c-151 -40 -259 -173 -318 -389 -24 -90 -24 -385 2 -480
29 -112 80 -209 144 -273 80 -81 134 -105 248 -110 79 -3 99 -1 153 21 108 44
181 130 228 266 35 102 35 102 -54 136 -43 17 -83 31 -89 33 -6 2 -19 -25 -28
-60 -40 -147 -131 -213 -252 -182 -61 15 -114 71 -144 151 -47 126 -48 398 -2
527 64 182 269 222 366 72 14 -22 29 -55 32 -73 8 -40 15 -41 117 -7 l79 26
-6 32 c-9 46 -61 152 -96 196 -84 106 -237 152 -380 114z"/>
<path d="M9944 1270 c-153 -31 -286 -177 -339 -375 -23 -82 -31 -323 -16 -421
35 -213 125 -355 271 -427 61 -30 70 -32 180 -32 104 0 120 3 173 27 84 39
170 129 213 222 57 124 68 189 68 381 0 147 -3 181 -22 250 -44 152 -125 270
-228 330 -78 46 -201 64 -300 45z m186 -221 c60 -27 87 -53 120 -119 39 -77
50 -142 50 -285 0 -140 -11 -208 -47 -280 -49 -100 -115 -145 -213 -145 -79 0
-117 17 -168 75 -75 85 -110 233 -97 414 11 157 56 265 135 321 60 43 150 51
220 19z"/>
<path d="M13520 1269 c-225 -44 -372 -288 -372 -619 -1 -396 181 -640 477
-640 120 0 235 40 330 114 78 61 74 44 75 313 l0 242 -177 3 c-98 2 -190 2
-205 0 l-28 -3 0 -100 0 -99 110 0 110 0 0 -85 0 -84 -43 -29 c-65 -45 -114
-62 -179 -62 -139 0 -226 87 -262 263 -31 151 -13 363 40 454 31 53 97 110
143 123 121 33 226 -15 272 -125 14 -34 29 -55 38 -55 20 0 161 37 168 43 17
17 -50 168 -104 234 -78 97 -237 143 -393 112z"/>
<path d="M1187 1253 c-4 -3 -7 -280 -7 -615 l0 -608 363 2 362 3 0 95 0 95
-267 3 -268 2 0 170 0 170 240 0 240 0 0 100 0 100 -237 2 -238 3 -3 138 -3
137 261 0 261 0 -3 103 -3 102 -346 3 c-190 1 -348 -1 -352 -5z"/>
<path d="M2331 1198 c-21 -65 -236 -776 -253 -838 -5 -19 -30 -99 -54 -178
-24 -79 -44 -145 -44 -148 0 -2 44 -4 99 -4 l98 0 21 72 c12 40 29 102 40 138
l18 65 194 0 193 0 41 -137 40 -138 102 0 102 0 -13 43 c-7 23 -50 162 -95
307 -113 366 -152 491 -205 665 -26 83 -51 165 -56 183 l-11 32 -98 0 -98 0
-21 -62z m184 -458 c32 -113 60 -211 63 -217 3 -10 -26 -13 -127 -13 -85 0
-131 4 -131 11 0 5 27 106 60 224 33 118 60 218 60 222 1 24 24 -44 75 -227z"/>
<path d="M3040 646 l0 -616 95 0 95 0 0 255 0 255 58 0 c106 0 126 -24 282
-327 l94 -183 113 0 114 0 -14 28 c-8 15 -56 111 -106 213 -77 156 -101 196
-146 240 -30 30 -51 56 -47 60 4 3 29 14 55 23 166 62 234 316 137 513 -34 69
-84 114 -149 134 -21 7 -146 14 -308 16 l-273 5 0 -616z m521 387 c55 -33 77
-151 41 -223 -28 -56 -65 -68 -230 -72 l-142 -3 0 158 0 157 151 0 c124 0 156
-3 180 -17z"/>
<path d="M4970 645 l0 -616 93 3 92 3 3 268 2 267 188 -2 187 -3 3 -267 2
-268 95 0 95 0 -2 613 -3 612 -92 3 -93 3 0 -246 0 -245 -190 0 -190 0 -2 243
-3 242 -92 3 -93 3 0 -616z"/>
<path d="M6300 645 l0 -615 88 0 87 0 -3 472 c-1 298 1 469 7 463 5 -6 33
-131 61 -280 28 -148 68 -355 88 -460 l37 -190 92 -3 c89 -3 93 -2 98 20 2 13
20 102 39 198 18 96 58 299 87 450 l54 275 3 -472 2 -473 90 0 90 0 0 615 0
615 -144 0 -144 0 -4 -27 c-12 -71 -160 -788 -164 -792 -8 -9 -13 7 -38 129
-107 520 -127 617 -136 651 l-11 39 -139 0 -140 0 0 -615z"/>
<path d="M7320 1256 c0 -2 78 -160 173 -352 l172 -349 3 -262 3 -263 89 0 90
0 0 254 0 254 175 358 c96 196 175 359 175 361 0 2 -48 2 -107 1 l-107 -3 -70
-156 c-39 -85 -89 -195 -110 -243 -33 -73 -41 -84 -50 -69 -11 20 -89 187
-167 361 l-51 112 -109 0 c-60 0 -109 -2 -109 -4z"/>
<path d="M12290 645 l0 -615 360 0 360 0 0 100 0 100 -265 0 -265 0 0 170 0
170 240 0 240 0 0 100 0 100 -240 0 -240 0 0 140 0 140 255 0 255 0 0 105 0
105 -350 0 -350 0 0 -615z"/>
<path d="M14220 645 l0 -615 360 0 360 0 0 100 0 100 -267 2 -268 3 -3 168 -2
167 240 0 240 0 0 100 0 100 -237 2 -238 3 -3 138 -3 137 261 0 260 0 0 105 0
105 -350 0 -350 0 0 -615z"/>
<path d="M10667 1244 c-4 -4 -7 -279 -7 -611 l0 -603 335 0 335 0 0 100 0 100
-240 0 -240 0 -2 508 -3 507 -85 3 c-47 1 -89 0 -93 -4z"/>
<path d="M11480 640 l0 -610 330 0 330 0 0 100 0 100 -237 2 -238 3 -3 508 -2
507 -90 0 -90 0 0 -610z"/>
</g>
</svg>
